<svg width="134" height="27" viewBox="0 0 134 27" fill="none" xmlns="http://www.w3.org/2000/svg">
<path fill-rule="evenodd" clip-rule="evenodd" d="M12.026 19.727L4.95732 23.6097L6.30731 15.3859L0.588651 9.56183L8.49164 8.36199L12.026 0.879761L15.5603 8.36199L23.4633 9.56183L17.7446 15.3859L19.0946 23.6097L12.026 19.727Z" fill="white"/>
<path fill-rule="evenodd" clip-rule="evenodd" d="M39.513 19.727L32.4443 23.6097L33.7943 15.3859L28.0757 9.56183L35.9786 8.36199L39.513 0.879761L43.0473 8.36199L50.9503 9.56183L45.2316 15.3859L46.5816 23.6097L39.513 19.727Z" fill="white"/>
<path fill-rule="evenodd" clip-rule="evenodd" d="M67.006 19.727L59.9374 23.6097L61.2873 15.3859L55.5687 9.56183L63.4717 8.36199L67.006 0.879761L70.5403 8.36199L78.4433 9.56183L72.7247 15.3859L74.0747 23.6097L67.006 19.727Z" fill="white"/>
<path fill-rule="evenodd" clip-rule="evenodd" d="M94.487 19.727L87.4184 23.6097L88.7684 15.3859L83.0497 9.56183L90.9527 8.36199L94.487 0.879761L98.0213 8.36199L105.924 9.56183L100.206 15.3859L101.556 23.6097L94.487 19.727Z" fill="white"/>
<path fill-rule="evenodd" clip-rule="evenodd" d="M121.974 19.727L114.905 23.6097L116.255 15.3859L110.537 9.56183L118.44 8.36199L121.974 0.879761L125.508 8.36199L133.411 9.56183L127.693 15.3859L129.043 23.6097L121.974 19.727Z" fill="white"/>
</svg>
